<svg id="Logo" xmlns="http://www.w3.org/2000/svg" width="86" height="86.715" viewBox="0 0 85.57 86.715">
  <g id="Grupo_1367" data-name="Grupo 1367" transform="translate(-14.405 5.357)">
    <g id="Grupo_1369" data-name="Grupo 1369" transform="translate(-1145.932 -1884.357)">
      <path id="Trazado_1648" data-name="Trazado 1648" d="M1203.694,1888.46V1879a43.357,43.357,0,1,0,0,86.715v-9.46a33.9,33.9,0,0,1,0-67.8" fill="#309eff"/>
      <path id="Trazado_1649" data-name="Trazado 1649" d="M1464.023,2198.316l13.509,10.279h9.848l12.826-10.079.365-30.52H1491.6v26.768l-5.13,4.814h-8.422l-4.858-3.912v-28.325h-9.584Z" transform="translate(-255.457 -242.881)" fill="#d61f24"/>
      <path id="Trazado_1650" data-name="Trazado 1650" d="M1524.337,1990.664h9.234l-9.234-9.234Z" transform="translate(-306.611 -86.28)" fill="none"/>
      <path id="Trazado_1651" data-name="Trazado 1651" d="M1501.141,1909.114l-4.73-4.73L1473.8,1881.77l-2.154-2.154c-.344-.06-.691-.115-1.037-.164a43.5,43.5,0,0,0-6.269-.452v40.835h9.46v-10.721h13.964l4.087,4.087v6.9h10.139V1909.96Zm-27.344-4.73v-9.234l9.234,9.234Z" transform="translate(-256.07)" fill="#7dc349"/>
    </g>
  </g>
</svg>
